# xmcd CD database file
#
# Track frame offsets:
#	150
#	12495
#	24702
#	37960
#	47762
#	56602
#	74297
#	90502
#	99152
#	113635
#	127385
#	136865
#
# Disc length: 2027 seconds
#
# Revision: 3
# Processed by: cddbd v1.5.2PL0 Copyright (c) Steve Scherf et al.
# Submitted via: CDex 1.51
#
DISCID=9d07e90c
DTITLE=Magic Sam's Blues Band - The Late Great Magic Sam
DYEAR=1900
DGENRE=Blues
TTITLE0=High Heel Sneakers
TTITLE1=All Your Love
TTITLE2=Trying To Make It
TTITLE3=Call Me If You Need Me
TTITLE4=Look Out Sam
TTITLE5=Torturing My Soul
TTITLE6=Sometimes
TTITLE7=Back Door Friend
TTITLE8=Feeling Good
TTITLE9=All Your Fault
TTITLE10=Looking Good
TTITLE11=Easy Baby
EXTD=
EXTT0=
EXTT1=
EXTT2=
EXTT3=
EXTT4=
EXTT5=
EXTT6=
EXTT7=
EXTT8=
EXTT9=
EXTT10=
EXTT11=
PLAYORDER=
